<?xml version="1.0" standalone="no"?>
<!DOCTYPE svg PUBLIC "-//W3C//DTD SVG 20010904//EN"
 "http://www.w3.org/TR/2001/REC-SVG-20010904/DTD/svg10.dtd">
<svg version="1.0" xmlns="http://www.w3.org/2000/svg"
 width="871.000000pt" height="871.000000pt" viewBox="0 0 871.000000 871.000000"
 preserveAspectRatio="xMidYMid meet">
<metadata>
Created by potrace 1.14, written by Peter Selinger 2001-2017
</metadata>
<g transform="translate(0.000000,871.000000) scale(0.100000,-0.100000)"
fill="#000000" stroke="none">
<path d="M3026 6648 c10 -85 11 -93 14 -93 1 0 4 -13 6 -30 6 -52 11 -80 14
-80 3 0 8 -32 14 -90 2 -22 5 -40 6 -40 4 0 21 -99 25 -145 2 -19 4 -36 5 -37
2 -2 3 -6 4 -10 1 -5 5 -14 10 -22 7 -10 6 -12 -4 -6 -10 6 -11 4 -4 -6 10
-17 14 -32 17 -79 2 -20 6 -41 10 -47 4 -6 8 -31 8 -56 1 -26 5 -45 8 -43 5 4
8 -12 14 -96 1 -16 5 -28 8 -28 3 0 5 -18 5 -40 -1 -22 2 -40 7 -40 5 0 7 -7
3 -15 -3 -8 -2 -15 2 -15 4 0 8 -13 9 -28 3 -41 11 -80 19 -93 5 -8 3 -9 -5
-4 -9 5 -9 0 1 -21 7 -16 13 -41 12 -56 0 -16 4 -28 10 -28 6 0 4 -5 -4 -10
-9 -6 -10 -10 -3 -10 6 0 12 -8 11 -17 0 -10 3 -36 7 -58 5 -22 8 -50 9 -62 0
-13 3 -23 8 -23 4 0 5 -6 2 -14 -3 -8 0 -24 6 -36 10 -18 10 -21 -2 -14 -10 6
-11 5 -2 -7 11 -13 15 -32 29 -124 2 -16 7 -46 10 -65 4 -19 8 -47 10 -62 2
-14 5 -31 9 -36 3 -5 -1 -9 -9 -9 -8 0 -15 4 -15 9 0 5 -4 6 -10 3 -5 -3 -10
-1 -10 4 0 6 -9 11 -21 11 -11 0 -17 4 -14 10 3 6 -1 7 -10 4 -8 -4 -21 -1
-29 5 -7 6 -16 8 -19 4 -4 -3 -7 -1 -7 5 0 7 -3 11 -7 10 -9 -3 -58 15 -117
43 -22 10 -43 16 -48 13 -4 -3 -8 0 -8 5 0 6 -3 10 -7 9 -5 0 -17 2 -28 7
-104 42 -134 52 -139 47 -3 -3 -6 0 -6 6 0 7 -8 12 -18 12 -10 0 -22 4 -27 9
-6 5 -19 11 -30 13 -11 1 -26 8 -33 15 -7 7 -19 10 -27 7 -8 -4 -15 -1 -15 7
0 7 -3 9 -7 6 -3 -4 -12 1 -20 11 -8 9 -12 11 -8 5 3 -7 2 -13 -4 -13 -5 0
-11 5 -13 10 -2 6 -13 12 -26 13 -12 0 -22 5 -22 9 0 4 -9 8 -20 8 -11 0 -20
4 -20 10 0 5 -8 6 -17 3 -13 -5 -15 -3 -9 13 6 15 5 16 -5 7 -9 -9 -18 -9 -39
2 -15 8 -30 12 -32 9 -3 -2 -11 2 -17 10 -7 8 -19 12 -27 9 -8 -3 -14 0 -14 6
0 6 -9 11 -21 11 -11 0 -17 4 -14 10 4 6 -1 7 -11 3 -11 -4 -22 1 -30 12 -8
10 -14 13 -14 7 0 -9 -6 -9 -22 2 -13 8 -38 17 -55 21 -18 4 -33 11 -33 16 0
5 -11 9 -25 9 -14 0 -25 5 -25 12 0 6 -3 9 -6 5 -4 -3 -19 0 -35 9 -16 8 -30
14 -31 14 -15 1 -48 14 -48 19 0 4 -11 8 -26 9 -14 1 -35 7 -47 14 -12 7 -28
13 -36 14 -8 2 -18 9 -22 16 -5 7 -9 9 -9 4 0 -5 -7 -3 -15 4 -8 7 -15 9 -15
5 0 -4 -7 -2 -15 5 -8 7 -15 9 -15 6 0 -4 -15 1 -32 10 -72 37 -70 37 -58 14
8 -15 8 -20 -2 -20 -9 0 -10 -3 -2 -8 6 -4 12 -14 12 -22 1 -15 4 -33 17 -120
4 -25 7 -52 7 -60 1 -8 6 -21 12 -29 9 -12 8 -13 -3 -6 -11 6 -12 5 -5 -6 11
-18 15 -42 17 -101 1 -27 4 -48 7 -48 6 0 13 -49 12 -92 0 -16 3 -28 7 -28 4
0 8 -12 9 -27 1 -16 5 -44 7 -63 11 -70 18 -125 18 -147 1 -13 4 -23 7 -23 4
0 6 -15 5 -32 0 -18 2 -37 6 -43 3 -5 7 -17 7 -25 1 -8 4 -33 7 -55 3 -22 7
-53 9 -70 2 -16 5 -30 6 -30 1 0 3 -11 5 -25 2 -14 6 -43 10 -65 3 -22 8 -58
10 -80 2 -22 4 -42 5 -45 1 -3 2 -9 1 -13 -1 -4 4 -17 10 -29 9 -16 8 -19 -2
-13 -8 6 -10 4 -3 -6 9 -15 13 -31 16 -69 1 -14 6 -31 11 -37 6 -9 5 -13 -2
-13 -8 0 -9 -6 -2 -17 5 -10 10 -34 12 -53 2 -19 8 -38 14 -42 6 -5 5 -8 -3
-8 -8 0 -10 -5 -5 -12 12 -21 12 -38 0 -38 -7 0 -6 -4 2 -9 24 -15 23 -99 0
-122 -10 -10 -19 -17 -19 -14 0 5 -16 -9 -63 -53 -10 -9 -22 -17 -26 -17 -4 0
-19 -12 -33 -27 -14 -16 -30 -28 -37 -28 -6 0 -11 -4 -11 -8 0 -5 -15 -20 -33
-33 -40 -28 -120 -94 -154 -126 -13 -13 -26 -23 -28 -23 -7 0 -45 -32 -64 -52
-8 -10 -19 -18 -22 -18 -7 0 -61 -45 -101 -82 -10 -10 -18 -16 -18 -13 0 3
-10 -3 -22 -15 -12 -11 -26 -20 -30 -20 -5 0 -7 -4 -4 -9 3 -4 -6 -13 -19 -19
-14 -7 -25 -16 -25 -21 0 -5 -10 -12 -23 -16 -19 -6 -19 -8 -4 -12 9 -2 14 -9
11 -15 -5 -7 0 -9 14 -6 12 4 22 2 22 -4 0 -6 7 -8 15 -4 8 3 15 1 15 -4 0 -6
11 -10 25 -10 14 0 25 -5 25 -11 0 -5 5 -7 10 -4 5 3 10 1 10 -5 0 -6 4 -9 8
-6 5 3 20 -1 35 -9 15 -8 27 -12 27 -10 0 3 16 -4 36 -15 19 -11 33 -16 29
-10 -4 6 10 1 29 -10 20 -11 36 -17 36 -14 0 4 6 2 13 -4 6 -6 17 -11 22 -12
25 -6 59 -18 118 -44 21 -9 43 -14 48 -11 5 4 9 1 9 -5 0 -6 4 -9 9 -6 5 4 11
1 13 -6 2 -6 13 -12 24 -13 29 -3 48 -9 54 -17 3 -4 15 -9 25 -11 25 -5 55
-16 77 -28 10 -5 25 -9 33 -9 8 0 15 -4 15 -8 0 -4 11 -9 23 -10 13 -1 37 -8
52 -16 16 -8 32 -13 37 -10 4 3 8 1 8 -3 0 -5 26 -17 58 -28 31 -10 66 -26 76
-34 11 -9 16 -11 12 -4 -4 8 3 7 21 -2 15 -8 43 -18 61 -21 17 -3 32 -11 32
-16 0 -6 6 -8 13 -5 7 3 21 -1 32 -9 10 -8 27 -14 37 -14 10 0 18 -4 18 -10 0
-5 3 -9 8 -9 4 1 10 0 15 -1 4 -1 10 -3 15 -4 20 -4 218 -80 226 -88 6 -4 18
-8 27 -8 9 0 29 -7 45 -14 15 -8 31 -13 36 -10 4 3 8 0 8 -5 0 -6 9 -11 20
-11 11 0 20 -4 20 -8 0 -4 10 -8 22 -9 11 -1 24 -6 27 -10 3 -4 17 -10 31 -12
14 -1 27 -6 30 -10 3 -3 16 -8 30 -9 14 -2 27 -8 28 -13 2 -5 12 -9 22 -9 10
0 21 -4 24 -9 3 -4 18 -11 33 -14 16 -3 42 -11 58 -18 17 -7 32 -13 35 -14 3
-1 13 -5 23 -8 9 -4 25 -10 35 -14 9 -3 20 -5 25 -5 4 1 7 -3 7 -8 0 -5 3 -9
8 -8 15 3 62 -15 62 -24 0 -5 5 -6 10 -3 6 4 18 1 27 -7 9 -7 18 -11 20 -9 2
1 16 -1 31 -7 15 -6 36 -13 47 -18 11 -4 26 -8 34 -10 8 -1 17 -6 20 -11 3 -5
13 -8 21 -8 8 0 30 -7 48 -17 17 -10 32 -15 32 -12 0 4 7 1 15 -6 8 -6 19 -9
25 -5 5 3 10 2 10 -4 0 -5 9 -12 20 -16 14 -4 28 3 49 24 17 17 35 31 41 31 5
0 10 4 10 9 0 6 13 18 29 27 17 10 28 21 26 24 -2 3 10 15 28 25 18 10 43 32
57 47 13 15 27 28 31 28 4 0 23 16 44 35 21 19 43 31 48 28 6 -3 7 -1 4 4 -8
13 57 65 68 55 5 -4 5 -2 2 4 -3 6 3 17 15 25 11 8 36 29 56 47 20 17 42 32
50 32 7 0 10 5 7 10 -3 5 -1 10 5 10 6 0 8 5 4 12 -4 6 -3 8 4 5 5 -4 26 9 46
28 20 19 36 32 36 28 0 -3 8 4 19 15 10 12 21 19 25 15 3 -3 6 1 6 10 0 9 4
17 9 17 4 0 24 15 44 34 20 18 38 32 41 29 2 -3 10 5 16 17 6 12 14 19 17 16
3 -3 17 8 31 24 15 17 30 30 35 30 5 0 18 11 29 25 11 14 23 23 28 20 5 -3 11
4 15 15 3 11 12 20 20 20 7 0 16 7 19 16 4 9 13 14 22 10 8 -3 13 -2 10 3 -7
10 18 33 27 26 4 -3 5 -2 2 1 -4 7 19 34 30 34 3 0 18 12 33 28 45 44 80 71
85 65 3 -2 8 5 12 16 3 12 13 21 21 21 8 0 14 5 14 10 0 6 7 10 15 10 8 0 15
7 15 15 0 8 5 15 10 15 6 0 23 11 37 24 15 14 30 23 35 20 4 -3 5 2 2 11 -4 9
-3 15 2 14 16 -4 44 13 38 22 -5 8 2 10 23 8 4 0 10 7 13 16 3 9 8 15 11 13 2
-2 21 15 42 37 20 21 37 37 37 33 0 -3 19 12 41 33 23 21 46 36 52 32 6 -3 7
-1 3 5 -3 6 3 16 16 23 12 7 37 28 55 47 18 19 33 32 33 28 0 -4 11 4 24 18
13 15 26 26 30 26 4 0 22 16 42 35 19 19 37 35 39 35 3 0 19 12 36 28 17 15
35 26 40 25 5 -2 8 3 6 10 -1 6 4 11 11 10 6 -2 12 4 12 13 0 10 5 14 16 10 8
-3 13 -2 10 2 -3 5 4 16 15 25 10 9 19 15 19 13 0 -3 18 13 40 35 21 21 44 39
50 39 6 0 8 5 5 10 -3 6 1 10 9 10 8 0 20 8 25 18 6 9 11 13 11 8 0 -5 9 3 21
18 11 14 24 24 27 22 4 -2 13 2 20 10 7 8 10 14 5 14 -4 0 2 6 12 14 11 8 24
12 29 9 5 -4 7 -2 4 3 -6 11 28 45 36 37 3 -3 8 2 12 11 3 9 13 16 21 16 8 0
11 5 8 10 -3 6 -2 10 3 10 6 0 27 16 48 35 22 19 45 35 52 35 7 0 11 4 7 9 -3
5 4 12 15 16 11 4 18 11 15 16 -4 5 1 9 9 9 9 0 16 5 16 10 0 6 7 10 15 10 8
0 15 7 15 15 0 8 4 15 9 15 11 0 53 34 84 68 11 12 25 22 30 22 5 0 22 14 38
31 16 17 29 28 29 25 0 -4 16 10 35 30 19 19 35 33 35 29 0 -3 11 5 24 19 13
15 29 26 35 26 7 0 9 5 6 10 -3 6 0 10 8 10 8 0 17 7 21 15 3 8 12 15 21 15 8
0 15 7 15 16 0 8 4 13 9 9 6 -3 14 3 20 12 6 10 11 15 11 12 0 -4 15 7 33 25
18 17 52 47 76 66 23 19 50 42 59 51 16 14 115 97 155 129 10 8 36 32 58 52
21 21 39 35 39 31 0 -3 15 9 34 28 41 42 87 79 99 79 4 0 5 5 2 10 -3 6 0 10
7 10 10 0 9 3 -2 9 -8 6 -18 7 -22 5 -4 -3 -8 0 -8 5 0 6 -10 11 -23 11 -13 0
-28 5 -35 12 -7 7 -12 9 -12 6 0 -4 -12 -1 -27 7 -15 8 -30 12 -35 9 -4 -3 -8
0 -8 7 0 7 -3 10 -6 6 -3 -3 -26 3 -51 14 -24 10 -53 19 -64 19 -10 0 -19 5
-19 12 0 6 -3 9 -6 5 -4 -3 -19 0 -34 8 -15 8 -30 11 -34 8 -3 -4 -6 -1 -6 6
0 7 -4 10 -9 7 -5 -3 -22 1 -37 9 -16 8 -44 18 -61 21 -18 3 -33 9 -33 13 0 4
-10 7 -22 8 -11 1 -24 6 -27 10 -3 4 -15 9 -26 11 -11 2 -27 6 -35 9 -8 3 -24
8 -35 10 -11 2 -21 8 -23 13 -2 5 -10 6 -18 3 -8 -3 -14 0 -14 7 0 6 -4 8 -10
5 -5 -3 -10 -2 -10 4 0 5 -9 8 -20 6 -11 -2 -20 0 -20 6 0 5 -3 8 -7 7 -9 -1
-40 9 -67 23 -14 8 -17 7 -11 -3 4 -8 1 -7 -7 2 -7 8 -22 17 -33 18 -11 2 -26
9 -34 15 -12 10 -13 9 -7 -2 6 -10 3 -9 -15 2 -13 9 -35 17 -49 19 -14 2 -28
7 -31 11 -3 4 -16 9 -27 10 -12 1 -22 5 -22 9 0 4 -9 8 -20 8 -12 0 -34 7 -50
15 -17 9 -33 16 -37 18 -5 1 -7 5 -6 8 1 3 -9 4 -22 1 -14 -2 -25 0 -25 5 0 8
-15 12 -57 15 -7 1 -13 4 -13 8 0 3 -22 13 -50 20 -27 7 -50 17 -50 22 0 4
-13 8 -30 8 -16 0 -30 4 -30 8 0 4 -10 8 -22 9 -11 1 -24 7 -28 13 -4 7 -9 11
-11 9 -9 -5 -109 26 -109 34 0 5 -7 7 -15 3 -8 -3 -15 -1 -15 5 0 6 -7 9 -15
5 -8 -3 -15 -1 -15 5 0 6 -3 8 -7 6 -5 -3 -19 0 -33 6 -14 5 -31 11 -39 13 -8
1 -17 6 -20 11 -3 4 -15 9 -26 11 -29 4 -37 7 -62 20 -13 7 -23 10 -23 6 0 -3
-6 -1 -13 5 -8 6 -17 8 -20 4 -4 -3 -7 -1 -7 5 0 6 -7 9 -15 6 -8 -4 -17 1
-21 10 -3 9 -10 13 -15 10 -5 -3 -35 4 -67 16 -31 12 -61 23 -67 25 -18 4 -50
16 -67 26 -10 5 -23 9 -30 9 -7 0 -26 7 -41 15 -18 9 -25 10 -20 2 4 -7 -4 -5
-17 4 -27 17 -101 44 -112 41 -5 -1 -8 2 -8 6 0 5 -6 9 -12 10 -15 1 -52 10
-55 12 -2 2 -9 3 -15 4 -7 1 -12 7 -11 13 1 5 -9 9 -22 7 -14 -1 -25 2 -25 7
0 4 -7 6 -15 3 -8 -4 -15 -1 -15 5 0 6 -11 11 -25 11 -14 0 -25 4 -25 8 0 4
-12 9 -27 10 -15 1 -29 5 -32 10 -3 4 -17 9 -31 11 -14 1 -28 7 -31 13 -3 5
-8 9 -10 7 -4 -3 -79 21 -94 29 -5 3 -16 7 -25 8 -8 1 -32 9 -52 18 -21 9 -38
13 -38 9 0 -5 -4 -3 -8 2 -7 9 -86 41 -125 50 -42 10 -63 19 -75 34 -8 9 -11
10 -7 4 7 -16 -7 -17 -21 -3 -6 6 -19 12 -30 14 -47 10 -74 19 -74 25 0 4 -12
8 -27 9 -16 1 -30 7 -31 12 -2 6 -7 8 -12 5 -5 -3 -16 2 -24 11 -9 8 -16 11
-16 4 0 -6 -9 -5 -23 5 -12 8 -34 17 -47 19 -14 2 -26 5 -27 7 -2 1 -8 2 -13
3 -6 0 -15 8 -20 16 -6 9 -10 10 -10 3 0 -7 -7 -10 -15 -7 -8 4 -12 11 -8 17
3 5 2 7 -4 4 -9 -6 -163 40 -173 52 -3 3 -16 8 -30 9 -14 2 -29 8 -34 13 -6 5
-18 9 -28 9 -10 0 -18 4 -18 8 0 4 -12 9 -27 10 -15 1 -29 5 -32 10 -3 4 -17
9 -31 10 -14 2 -26 8 -28 13 -2 5 -17 9 -33 9 -16 0 -29 5 -29 10 0 6 -11 10
-24 10 -14 0 -27 4 -30 9 -3 4 -18 11 -33 14 -16 3 -41 11 -58 18 -16 7 -39
14 -50 16 -11 2 -21 8 -23 13 -2 6 -10 10 -18 10 -12 0 -13 -10 -8 -52z"/>
<path d="M4107 6429 c7 -7 15 -10 18 -7 3 3 -2 9 -12 12 -14 6 -15 5 -6 -5z"/>
<path d="M6905 4510 c-3 -6 1 -7 9 -4 18 7 21 14 7 14 -6 0 -13 -4 -16 -10z"/>
<path d="M6590 4396 c0 -2 7 -7 16 -10 8 -3 12 -2 9 4 -6 10 -25 14 -25 6z"/>
<path d="M3630 2109 c0 -5 5 -7 10 -4 6 3 10 8 10 11 0 2 -4 4 -10 4 -5 0 -10
-5 -10 -11z"/>
</g>
</svg>
